<svg xmlns="http://www.w3.org/2000/svg" width="320" height="230" viewBox="0 0 320 230" role="img" aria-labelledby="title desc">
<title id="title">Weekly Schedule</title>
<desc id="desc">Obsidian plugin · Open source. Plan daily tasks in four quadrants. Plan your week. Look back on your year.</desc>
<rect x=".55" y=".55" width="318.9" height="228.9" rx="6.4" fill="#ffffff" stroke="#d1d9e0" stroke-width="1.1"/>
<g transform="translate(24 24) scale(1)" fill="none" stroke="#246957" stroke-width="1.1" stroke-linecap="round" stroke-linejoin="round"><rect x="0" y="2" width="14" height="13" rx="2"/><path d="M0 6H14M4 0V4M10 0V4M3 9H4M7 9H8M11 9H12M3 12H4M7 12H8"/></g>
<g fill="#1f2328"><path d="M28.29 73l2.2 0l2.63-9.33l.14 0l2.65 9.33l2.19 0l3.5-13.03l-2.42 0l-2.23 9.78l-.12 0l-2.6-9.78l-2.07 0l-2.57 9.78l-.13 0l-2.24-9.78l-2.43 0zM46.82 73.2c2.68 0 4-1.55 4.32-2.82l.03-.08l-2.14 0l-.03 .06c-.22 .45-.91 1.07-2.13 1.07c-1.53 0-2.49-1.03-2.51-2.8l6.9 0l0-.74c0-2.98-1.74-4.95-4.55-4.95c-2.81 0-4.6 2.03-4.6 5.14l0 .01c0 3.14 1.78 5.11 4.71 5.11zm-.08-8.5c1.26 0 2.17 .8 2.32 2.42l-4.69 0c.18-1.57 1.11-2.42 2.37-2.42zM57.58 73.2c2.69 0 4.01-1.55 4.32-2.82l.03-.08l-2.14 0l-.03 .06c-.22 .45-.91 1.07-2.13 1.07c-1.53 0-2.49-1.03-2.51-2.8l6.9 0l0-.74c0-2.98-1.74-4.95-4.54-4.95c-2.81 0-4.61 2.03-4.61 5.14l0 .01c0 3.14 1.78 5.11 4.71 5.11zm-.08-8.5c1.26 0 2.17 .8 2.32 2.42l-4.68 0c.17-1.57 1.11-2.42 2.36-2.42zM64.21 73l2.25 0l0-3.47l.78-.8l3.17 4.27l2.71 0l-4.24-5.7l3.97-4.17l-2.6 0l-3.64 4.04l-.15 0l0-7.86l-2.25 0zM74.79 73l2.25 0l0-13.69l-2.25 0zM80.78 76.47c2.19 0 3.32-.79 4.17-3.26l3.54-10.08l-2.37 0l-2.29 7.71l-.17 0l-2.31-7.71l-2.46 0l3.54 9.88l-.12 .45c-.24 .89-.8 1.27-1.72 1.27c-.23 0-.49 0-.67-.02l0 1.72c.28 .03 .59 .04 .86 .04zM99.8 73.33c3.12 0 5.08-1.59 5.08-4.13l0-.01c0-1.97-1.15-3.07-3.89-3.65l-1.4-.3c-1.63-.34-2.29-.92-2.29-1.84l0-.01c0-1.11 1.03-1.79 2.48-1.79c1.49-.01 2.45 .71 2.62 1.73l.02 .1l2.23 0l-.01-.11c-.17-2.1-1.96-3.68-4.85-3.68c-2.82 0-4.83 1.57-4.83 3.9l0 .01c0 1.94 1.16 3.19 3.82 3.75l1.4 .29c1.68 .36 2.36 .93 2.36 1.87l0 .01c0 1.12-1.1 1.89-2.67 1.89c-1.66 0-2.82-.72-2.93-1.81l-.01-.09l-2.26 0l.01 .13c.17 2.24 2.09 3.74 5.12 3.74zM111.35 73.2c2.5 0 3.96-1.35 4.28-3.37l.02-.07l-2.12 .01l-.02 .03c-.28 1.04-.99 1.57-2.16 1.57c-1.52 0-2.44-1.22-2.44-3.32l0-.02c0-2.07 .91-3.28 2.44-3.28c1.23 0 1.96 .69 2.17 1.65l.01 .02l2.12 0l0-.03c-.25-2.04-1.77-3.45-4.31-3.45c-2.97 0-4.71 1.9-4.71 5.09l0 .02c0 3.22 1.75 5.15 4.72 5.15zM117.73 73l2.25 0l0-5.75c0-1.49 .83-2.43 2.17-2.43c1.36 0 1.99 .78 1.99 2.32l0 5.86l2.25 0l0-6.39c0-2.35-1.2-3.67-3.41-3.67c-1.43 0-2.37 .64-2.84 1.7l-.16 0l0-5.33l-2.25 0zM133.12 73.2c2.68 0 4-1.55 4.32-2.82l.03-.08l-2.15 0l-.02 .06c-.22 .45-.91 1.07-2.13 1.07c-1.53 0-2.49-1.03-2.52-2.8l6.91 0l0-.74c0-2.98-1.74-4.95-4.55-4.95c-2.81 0-4.6 2.03-4.6 5.14l0 .01c0 3.14 1.77 5.11 4.71 5.11zm-.08-8.5c1.25 0 2.17 .8 2.32 2.42l-4.69 0c.17-1.57 1.11-2.42 2.37-2.42zM143.21 73.16c1.4 0 2.46-.63 3-1.7l.16 0l0 1.54l2.26 0l0-13.69l-2.26 0l0 5.39l-.16 0c-.51-1.07-1.64-1.74-3-1.74c-2.5 0-4.04 1.96-4.04 5.1l0 .02c0 3.12 1.57 5.08 4.04 5.08zm.71-1.89c-1.54 0-2.47-1.21-2.47-3.19l0-.02c0-1.99 .94-3.2 2.47-3.2c1.53 0 2.48 1.22 2.48 3.2l0 .02c0 1.98-.95 3.19-2.48 3.19zM154.57 73.2c1.43 0 2.43-.64 2.89-1.7l.16 0l0 1.5l2.25 0l0-9.87l-2.25 0l0 5.75c0 1.48-.78 2.42-2.23 2.42c-1.36 0-1.93-.78-1.93-2.3l0-5.87l-2.25 0l0 6.38c0 2.35 1.14 3.69 3.36 3.69zM162.55 73l2.25 0l0-13.69l-2.25 0zM171.72 73.2c2.68 0 4-1.55 4.31-2.82l.03-.08l-2.14 0l-.03 .06c-.21 .45-.91 1.07-2.13 1.07c-1.53 0-2.48-1.03-2.51-2.8l6.9 0l0-.74c0-2.98-1.73-4.95-4.54-4.95c-2.81 0-4.61 2.03-4.61 5.14l0 .01c0 3.14 1.78 5.11 4.72 5.11zm-.09-8.5c1.26 0 2.17 .8 2.33 2.42l-4.69 0c.17-1.57 1.11-2.42 2.36-2.42z"/></g>
<g fill="#59636e"><path d="M28.74 98.2c2.48 0 3.98-1.77 3.98-4.53l0-.01c0-2.78-1.51-4.53-3.98-4.53c-2.45 0-3.97 1.75-3.97 4.53l0 .01c0 2.77 1.49 4.53 3.97 4.53zm0-.99c-1.8 0-2.87-1.4-2.87-3.54l0-.01c0-2.16 1.11-3.53 2.87-3.53c1.78 0 2.88 1.37 2.88 3.53l0 .01c0 2.14-1.1 3.54-2.88 3.54zM37.68 98.11c1.64 0 2.72-1.32 2.72-3.34l0-.01c0-2.03-1.07-3.35-2.72-3.35c-.89 0-1.66 .45-2.02 1.14l-.09 0l0-3.59l-1.05 0l0 9.04l1.05 0l0-1.03l.09 0c.4 .72 1.12 1.14 2.02 1.14zm-.24-.92c-1.18 0-1.9-.93-1.9-2.42l0-.01c0-1.5 .72-2.42 1.9-2.42c1.18 0 1.89 .91 1.89 2.42l0 .01c0 1.51-.71 2.42-1.89 2.42zM44.24 98.11c1.47 0 2.59-.79 2.59-1.95l0-.01c0-.92-.58-1.45-1.8-1.75l-1-.24c-.76-.18-1.09-.46-1.09-.9l0-.01c0-.57 .57-.97 1.34-.97c.78 0 1.28 .36 1.42 .87l1.03 0c-.15-1.06-1.09-1.74-2.45-1.74c-1.37 0-2.41 .81-2.41 1.89l0 0c0 .93 .55 1.46 1.76 1.75l1.01 .24c.79 .19 1.13 .5 1.13 .94l0 .01c0 .59-.62 1-1.49 1c-.83 0-1.35-.35-1.52-.89l-1.07 0c.12 1.07 1.11 1.76 2.55 1.76zM49.01 90.28c.39 0 .72-.33 .72-.72c0-.4-.33-.72-.72-.72c-.4 0-.72 .32-.72 .72c0 .39 .32 .72 .72 .72zm-.53 7.72l1.04 0l0-6.47l-1.04 0zM53.89 98.11c.9 0 1.62-.42 2.01-1.14l.1 0l0 1.03l1.04 0l0-9.04l-1.04 0l0 3.59l-.1 0c-.35-.69-1.13-1.14-2.01-1.14c-1.65 0-2.72 1.32-2.72 3.35l0 .01c0 2.02 1.08 3.34 2.72 3.34zm.24-.92c-1.19 0-1.89-.91-1.89-2.42l0-.01c0-1.51 .7-2.42 1.89-2.42c1.17 0 1.89 .92 1.89 2.42l0 .01c0 1.49-.72 2.42-1.89 2.42zM59.6 90.28c.4 0 .72-.33 .72-.72c0-.4-.32-.72-.72-.72c-.39 0-.72 .32-.72 .72c0 .39 .33 .72 .72 .72zm-.53 7.72l1.05 0l0-6.47l-1.05 0zM63.87 98.11c.87 0 1.55-.37 1.95-1.06l.1 0l0 .95l1.05 0l0-4.43c0-1.35-.89-2.16-2.47-2.16c-1.38 0-2.36 .69-2.53 1.7l-.01 .04l1.05 0l0-.02c.17-.51 .68-.79 1.46-.79c.96 0 1.45 .43 1.45 1.23l0 .59l-1.85 .11c-1.51 .09-2.37 .76-2.37 1.91l0 .01c0 1.18 .94 1.92 2.17 1.92zm-1.1-1.94l0-.01c0-.65 .44-.99 1.42-1.05l1.73-.11l0 .59c0 .92-.77 1.62-1.84 1.62c-.75 0-1.31-.39-1.31-1.04zM68.88 98l1.04 0l0-3.83c0-1.14 .66-1.83 1.69-1.83c1.03 0 1.51 .56 1.51 1.72l0 3.94l1.05 0l0-4.19c0-1.54-.81-2.4-2.27-2.4c-.95 0-1.56 .4-1.88 1.09l-.1 0l0-.97l-1.04 0zM79.51 100.16l1.05 0l0-3.18l.09 0c.36 .69 1.13 1.13 2.02 1.13c1.65 0 2.72-1.31 2.72-3.34l0-.01c0-2.02-1.08-3.35-2.72-3.35c-.9 0-1.62 .43-2.02 1.15l-.09 0l0-1.03l-1.05 0zm2.92-2.97c-1.18 0-1.9-.93-1.9-2.42l0-.01c0-1.5 .72-2.42 1.9-2.42c1.18 0 1.89 .91 1.89 2.42l0 .01c0 1.51-.71 2.42-1.89 2.42zM87.08 98l1.04 0l0-9.04l-1.04 0zM92.3 98.11c.95 0 1.6-.39 1.92-1.08l.1 0l0 .97l1.04 0l0-6.47l-1.04 0l0 3.83c0 1.13-.61 1.83-1.75 1.83c-1.03 0-1.45-.56-1.45-1.72l0-3.94l-1.05 0l0 4.19c0 1.53 .76 2.39 2.23 2.39zM99.97 100.28c1.77 0 2.89-.92 2.89-2.37l0-6.38l-1.05 0l0 1.06l-.07 0c-.4-.73-1.11-1.18-2.02-1.18c-1.69 0-2.74 1.32-2.74 3.13l0 .01c0 1.82 1.04 3.11 2.72 3.11c.89 0 1.62-.4 2.03-1.11l.09 0l0 1.31c0 .95-.69 1.5-1.85 1.5c-.93 0-1.5-.35-1.62-.84l0-.01l-1.08 0l-.02 .01c.17 1.06 1.16 1.76 2.72 1.76zm-.04-3.54c-1.21 0-1.88-.9-1.88-2.19l0-.01c0-1.28 .67-2.2 1.88-2.2c1.19 0 1.92 .92 1.92 2.2l0 .01c0 1.29-.72 2.19-1.92 2.19zM105.36 90.28c.39 0 .72-.33 .72-.72c0-.4-.33-.72-.72-.72c-.4 0-.73 .32-.73 .72c0 .39 .33 .72 .73 .72zm-.53 7.72l1.04 0l0-6.47l-1.04 0zM107.84 98l1.05 0l0-3.83c0-1.14 .65-1.83 1.68-1.83c1.04 0 1.52 .56 1.52 1.72l0 3.94l1.04 0l0-4.19c0-1.54-.81-2.4-2.26-2.4c-.96 0-1.56 .4-1.89 1.09l-.09 0l0-.97l-1.05 0zM119.33 95.29c.43 0 .78-.35 .78-.78c0-.43-.35-.78-.78-.78c-.43 0-.78 .35-.78 .78c0 .43 .35 .78 .78 .78zM129.36 98.2c2.48 0 3.98-1.77 3.98-4.53l0-.01c0-2.78-1.52-4.53-3.98-4.53c-2.45 0-3.98 1.75-3.98 4.53l0 .01c0 2.77 1.49 4.53 3.98 4.53zm0-.99c-1.8 0-2.87-1.4-2.87-3.54l0-.01c0-2.16 1.11-3.53 2.87-3.53c1.77 0 2.87 1.37 2.87 3.53l0 .01c0 2.14-1.09 3.54-2.87 3.54zM135.08 100.16l1.04 0l0-3.18l.1 0c.35 .69 1.13 1.13 2.02 1.13c1.64 0 2.71-1.31 2.71-3.34l0-.01c0-2.02-1.07-3.35-2.71-3.35c-.9 0-1.62 .43-2.02 1.15l-.1 0l0-1.03l-1.04 0zm2.92-2.97c-1.18 0-1.9-.93-1.9-2.42l0-.01c0-1.5 .72-2.42 1.9-2.42c1.18 0 1.88 .91 1.88 2.42l0 .01c0 1.51-.7 2.42-1.88 2.42zM145.23 98.11c1.52 0 2.45-.86 2.67-1.74l.01-.05l-1.04 0l-.03 .06c-.17 .39-.71 .8-1.59 .8c-1.15 0-1.89-.78-1.92-2.12l4.66 0l0-.41c0-1.93-1.07-3.24-2.83-3.24c-1.76 0-2.9 1.37-2.9 3.37l0 .01c0 2.03 1.12 3.32 2.97 3.32zm-.07-5.77c.95 0 1.66 .61 1.77 1.89l-3.58 0c.11-1.23 .85-1.89 1.81-1.89zM149.61 98l1.05 0l0-3.83c0-1.14 .65-1.83 1.69-1.83c1.03 0 1.51 .56 1.51 1.72l0 3.94l1.04 0l0-4.19c0-1.54-.81-2.4-2.26-2.4c-.96 0-1.56 .4-1.89 1.09l-.09 0l0-.97l-1.05 0zM162.47 98.11c1.47 0 2.6-.79 2.6-1.95l0-.01c0-.92-.59-1.45-1.81-1.75l-1-.24c-.76-.18-1.09-.46-1.09-.9l0-.01c0-.57 .57-.97 1.34-.97c.78 0 1.28 .36 1.42 .87l1.03 0c-.15-1.06-1.09-1.74-2.45-1.74c-1.37 0-2.41 .81-2.41 1.89l0 0c0 .93 .55 1.46 1.76 1.75l1.01 .24c.8 .19 1.13 .5 1.13 .94l0 .01c0 .59-.62 1-1.49 1c-.83 0-1.35-.35-1.52-.89l-1.07 0c.12 1.07 1.11 1.76 2.55 1.76zM169.35 98.11c1.84 0 2.98-1.27 2.98-3.34l0-.01c0-2.08-1.14-3.35-2.98-3.35c-1.85 0-2.99 1.27-2.99 3.35l0 .01c0 2.07 1.14 3.34 2.99 3.34zm0-.92c-1.23 0-1.92-.9-1.92-2.42l0-.01c0-1.53 .69-2.42 1.92-2.42c1.22 0 1.91 .89 1.91 2.42l0 .01c0 1.52-.69 2.42-1.91 2.42zM176.12 98.11c.95 0 1.61-.39 1.92-1.08l.1 0l0 .97l1.05 0l0-6.47l-1.05 0l0 3.83c0 1.13-.61 1.83-1.75 1.83c-1.03 0-1.45-.56-1.45-1.72l0-3.94l-1.05 0l0 4.19c0 1.53 .76 2.39 2.23 2.39zM181.13 98l1.05 0l0-4.01c0-.95 .71-1.58 1.7-1.58c.23 0 .43 .02 .64 .06l0-1.02c-.1-.01-.32-.04-.52-.04c-.87 0-1.48 .4-1.73 1.08l-.09 0l0-.96l-1.05 0zM188.28 98.11c1.56 0 2.43-.83 2.69-2l.02-.07l-1.04 .01l-.01 .03c-.24 .72-.79 1.11-1.66 1.11c-1.15 0-1.9-.96-1.9-2.45l0-.01c0-1.46 .73-2.39 1.9-2.39c.93 0 1.51 .51 1.67 1.15l0 .02l1.04 0l0-.04c-.2-1.15-1.14-2.06-2.71-2.06c-1.82 0-2.97 1.31-2.97 3.32l0 .01c0 2.06 1.16 3.37 2.97 3.37zM195.16 98.11c1.53 0 2.45-.86 2.67-1.74l.02-.05l-1.05 0l-.02 .06c-.18 .39-.72 .8-1.59 .8c-1.16 0-1.9-.78-1.93-2.12l4.66 0l0-.41c0-1.93-1.07-3.24-2.83-3.24c-1.75 0-2.9 1.37-2.9 3.37l0 .01c0 2.03 1.12 3.32 2.97 3.32zm-.07-5.77c.95 0 1.66 .61 1.77 1.89l-3.58 0c.12-1.23 .85-1.89 1.81-1.89z"/></g>
<g fill="#59636e"><path d="M25.26 132l1.23 0l0-3.52l2.49 0c1.85 0 3.16-1.31 3.16-3.18l0-.01c0-1.88-1.31-3.15-3.16-3.15l-3.72 0zm3.4-8.77c1.41 0 2.22 .77 2.22 2.07l0 .01c0 1.3-.81 2.08-2.22 2.08l-2.17 0l0-4.16zM34.07 132l1.19 0l0-10.29l-1.19 0zM39.57 132.13c.99 0 1.76-.43 2.22-1.22l.11 0l0 1.09l1.19 0l0-5.04c0-1.54-1-2.46-2.8-2.46c-1.57 0-2.69 .78-2.88 1.94l-.01 .04l1.19 0l0-.02c.2-.58 .78-.91 1.66-.91c1.1 0 1.65 .5 1.65 1.41l0 .67l-2.11 .12c-1.71 .11-2.69 .87-2.69 2.18l0 .01c0 1.34 1.06 2.19 2.47 2.19zm-1.25-2.21l0-.02c0-.73 .49-1.13 1.61-1.19l1.97-.13l0 .67c0 1.05-.88 1.85-2.09 1.85c-.85 0-1.49-.44-1.49-1.18zM45.27 132l1.19 0l0-4.36c0-1.29 .74-2.09 1.92-2.09c1.17 0 1.72 .64 1.72 1.97l0 4.48l1.19 0l0-4.77c0-1.75-.92-2.73-2.58-2.73c-1.08 0-1.78 .46-2.14 1.24l-.11 0l0-1.11l-1.19 0zM60.09 132.13c1.03 0 1.85-.49 2.3-1.31l.11 0l0 1.18l1.19 0l0-10.29l-1.19 0l0 4.08l-.11 0c-.4-.78-1.28-1.29-2.3-1.29c-1.87 0-3.09 1.5-3.09 3.81l0 .01c0 2.3 1.23 3.81 3.09 3.81zm.28-1.05c-1.35 0-2.15-1.04-2.15-2.76l0-.01c0-1.72 .8-2.76 2.15-2.76c1.34 0 2.16 1.06 2.16 2.76l0 .01c0 1.7-.82 2.76-2.16 2.76zM68 132.13c.99 0 1.76-.43 2.22-1.22l.11 0l0 1.09l1.19 0l0-5.04c0-1.54-1-2.46-2.8-2.46c-1.57 0-2.69 .78-2.88 1.94l-.01 .04l1.19 0l.01-.02c.19-.58 .77-.91 1.65-.91c1.1 0 1.65 .5 1.65 1.41l0 .67l-2.11 .12c-1.71 .11-2.68 .87-2.68 2.18l0 .01c0 1.34 1.05 2.19 2.46 2.19zm-1.25-2.21l0-.02c0-.73 .49-1.13 1.62-1.19l1.96-.13l0 .67c0 1.05-.88 1.85-2.09 1.85c-.85 0-1.49-.44-1.49-1.18zM74.33 123.21c.45 0 .82-.37 .82-.82c0-.45-.37-.82-.82-.82c-.45 0-.82 .37-.82 .82c0 .45 .37 .82 .82 .82zm-.61 8.79l1.19 0l0-7.37l-1.19 0zM77.22 132l1.19 0l0-10.29l-1.19 0zM81.33 134.58c1.3 0 1.91-.47 2.52-2.13l2.88-7.82l-1.25 0l-2.02 6.06l-.11 0l-2.02-6.06l-1.28 0l2.73 7.38l-.13 .43c-.27 .85-.68 1.16-1.36 1.16c-.16 0-.35-.01-.49-.03l0 .97c.16 .03 .37 .04 .53 .04zM94.85 132.05c.24 0 .46-.02 .69-.06l0-1.02c-.21 .03-.33 .03-.54 .03c-.77 0-1.07-.35-1.07-1.21l0-4.17l1.61 0l0-.99l-1.61 0l0-1.91l-1.23 0l0 1.91l-1.16 0l0 .99l1.16 0l0 4.47c0 1.4 .64 1.96 2.15 1.96zM99.35 132.13c.99 0 1.76-.43 2.22-1.22l.11 0l0 1.09l1.19 0l0-5.04c0-1.54-1-2.46-2.8-2.46c-1.57 0-2.69 .78-2.88 1.94l-.01 .04l1.19 0l.01-.02c.19-.58 .77-.91 1.65-.91c1.1 0 1.65 .5 1.65 1.41l0 .67l-2.11 .12c-1.71 .11-2.69 .87-2.69 2.18l0 .01c0 1.34 1.06 2.19 2.47 2.19zm-1.25-2.21l0-.02c0-.73 .49-1.13 1.61-1.19l1.97-.13l0 .67c0 1.05-.88 1.85-2.09 1.85c-.85 0-1.49-.44-1.49-1.18zM107.58 132.13c1.67 0 2.95-.91 2.95-2.22l0-.02c0-1.05-.67-1.65-2.06-1.98l-1.13-.28c-.87-.21-1.24-.52-1.24-1.02l0-.02c0-.65 .64-1.1 1.52-1.1c.89 0 1.46 .41 1.62 .99l1.17 0c-.17-1.21-1.24-1.98-2.79-1.98c-1.56 0-2.74 .92-2.74 2.15l0 0c0 1.06 .62 1.67 2.01 1.99l1.14 .28c.91 .22 1.28 .56 1.28 1.06l0 .02c0 .67-.7 1.14-1.69 1.14c-.95 0-1.53-.4-1.73-1.02l-1.22 0c.14 1.22 1.27 2.01 2.91 2.01zM112.44 132l1.19 0l0-2.8l.69-.67l2.76 3.47l1.5 0l-3.42-4.27l3.21-3.1l-1.44 0l-3.19 3.22l-.11 0l0-6.14l-1.19 0zM122.23 132.13c1.68 0 2.96-.91 2.96-2.22l0-.02c0-1.05-.67-1.65-2.06-1.98l-1.14-.28c-.86-.21-1.23-.52-1.23-1.02l0-.02c0-.65 .64-1.1 1.51-1.1c.89 0 1.47 .41 1.62 .99l1.17 0c-.16-1.21-1.23-1.98-2.78-1.98c-1.57 0-2.74 .92-2.74 2.15l0 0c0 1.06 .62 1.67 2 1.99l1.14 .28c.91 .22 1.29 .56 1.29 1.06l0 .02c0 .67-.71 1.14-1.7 1.14c-.94 0-1.53-.4-1.73-1.02l-1.21 0c.13 1.22 1.26 2.01 2.9 2.01zM131.6 123.21c.45 0 .82-.37 .82-.82c0-.45-.37-.82-.82-.82c-.45 0-.82 .37-.82 .82c0 .45 .37 .82 .82 .82zm-.6 8.79l1.19 0l0-7.37l-1.19 0zM134.43 132l1.19 0l0-4.36c0-1.29 .74-2.09 1.92-2.09c1.17 0 1.72 .64 1.72 1.97l0 4.48l1.19 0l0-4.77c0-1.75-.92-2.73-2.58-2.73c-1.08 0-1.77 .46-2.14 1.24l-.11 0l0-1.11l-1.19 0zM147.03 132l1.19 0l0-6.38l1.67 0l0-.99l-1.67 0l0-.79c0-.8 .34-1.22 1.19-1.22c.21 0 .41 .01 .55 .04l0-.95c-.25-.05-.51-.07-.79-.07c-1.41 0-2.14 .7-2.14 2.17l0 .82l-1.23 0l0 .99l1.23 0zM154.32 132.13c2.1 0 3.4-1.45 3.4-3.81l0-.01c0-2.37-1.3-3.81-3.4-3.81c-2.1 0-3.4 1.44-3.4 3.81l0 .01c0 2.36 1.3 3.81 3.4 3.81zm0-1.05c-1.39 0-2.18-1.02-2.18-2.76l0-.01c0-1.74 .79-2.76 2.18-2.76c1.39 0 2.18 1.02 2.18 2.76l0 .01c0 1.74-.79 2.76-2.18 2.76zM162.03 132.13c1.08 0 1.83-.44 2.19-1.23l.11 0l0 1.1l1.19 0l0-7.37l-1.19 0l0 4.36c0 1.29-.69 2.09-1.99 2.09c-1.18 0-1.66-.64-1.66-1.96l0-4.49l-1.18 0l0 4.77c0 1.75 .86 2.73 2.53 2.73zM167.73 132l1.19 0l0-4.57c0-1.08 .81-1.79 1.94-1.79c.26 0 .49 .02 .73 .06l0-1.15c-.11-.02-.36-.05-.59-.05c-1 0-1.69 .45-1.97 1.22l-.11 0l0-1.09l-1.19 0zM182.14 134.46l1.19 0l0-9.83l-1.19 0l0 1.23l-.08 0c-.47-.84-1.34-1.36-2.33-1.36c-1.88 0-3.1 1.5-3.1 3.81l0 .01c0 2.3 1.23 3.81 3.1 3.81c1.05 0 1.9-.46 2.3-1.24l.11 0zm-2.13-3.38c-1.35 0-2.16-1.04-2.16-2.76l0-.01c0-1.72 .81-2.76 2.15-2.76c1.34 0 2.18 1.06 2.18 2.76l0 .01c0 1.69-.84 2.76-2.17 2.76zM188 132.13c1.08 0 1.83-.44 2.19-1.23l.11 0l0 1.1l1.19 0l0-7.37l-1.19 0l0 4.36c0 1.29-.69 2.09-1.99 2.09c-1.18 0-1.66-.64-1.66-1.96l0-4.49l-1.19 0l0 4.77c0 1.75 .87 2.73 2.54 2.73zM195.73 132.13c.99 0 1.76-.43 2.22-1.22l.11 0l0 1.09l1.19 0l0-5.04c0-1.54-1-2.46-2.8-2.46c-1.57 0-2.69 .78-2.88 1.94l-.01 .04l1.19 0l0-.02c.2-.58 .78-.91 1.66-.91c1.1 0 1.65 .5 1.65 1.41l0 .67l-2.11 .12c-1.71 .11-2.69 .87-2.69 2.18l0 .01c0 1.34 1.06 2.19 2.47 2.19zm-1.25-2.21l0-.02c0-.73 .49-1.13 1.61-1.19l1.97-.13l0 .67c0 1.05-.88 1.85-2.09 1.85c-.85 0-1.49-.44-1.49-1.18zM204.15 132.13c1.02 0 1.84-.49 2.29-1.31l.11 0l0 1.18l1.19 0l0-10.29l-1.19 0l0 4.08l-.11 0c-.4-.78-1.28-1.29-2.29-1.29c-1.88 0-3.09 1.5-3.09 3.81l0 .01c0 2.3 1.22 3.81 3.09 3.81zm.27-1.05c-1.35 0-2.15-1.04-2.15-2.76l0-.01c0-1.72 .8-2.76 2.15-2.76c1.34 0 2.16 1.06 2.16 2.76l0 .01c0 1.7-.82 2.76-2.16 2.76zM210.03 132l1.19 0l0-4.57c0-1.08 .8-1.79 1.94-1.79c.26 0 .48 .02 .73 .06l0-1.15c-.12-.02-.37-.05-.6-.05c-.99 0-1.68 .45-1.96 1.22l-.11 0l0-1.09l-1.19 0zM217.38 132.13c.99 0 1.77-.43 2.23-1.22l.11 0l0 1.09l1.19 0l0-5.04c0-1.54-1.01-2.46-2.8-2.46c-1.58 0-2.7 .78-2.89 1.94l-.01 .04l1.19 0l.01-.02c.19-.58 .77-.91 1.66-.91c1.1 0 1.65 .5 1.65 1.41l0 .67l-2.11 .12c-1.72 .11-2.69 .87-2.69 2.18l0 .01c0 1.34 1.06 2.19 2.46 2.19zm-1.24-2.21l0-.02c0-.73 .49-1.13 1.61-1.19l1.97-.13l0 .67c0 1.05-.88 1.85-2.09 1.85c-.86 0-1.49-.44-1.49-1.18zM223.08 132l1.19 0l0-4.36c0-1.29 .75-2.09 1.92-2.09c1.18 0 1.73 .64 1.73 1.97l0 4.48l1.19 0l0-4.77c0-1.75-.93-2.73-2.58-2.73c-1.09 0-1.78 .46-2.15 1.24l-.11 0l0-1.11l-1.19 0zM233.87 132.05c.23 0 .46-.02 .69-.06l0-1.02c-.22 .03-.33 .03-.55 .03c-.76 0-1.06-.35-1.06-1.21l0-4.17l1.61 0l0-.99l-1.61 0l0-1.91l-1.23 0l0 1.91l-1.17 0l0 .99l1.17 0l0 4.47c0 1.4 .63 1.96 2.15 1.96zM238.73 132.13c1.68 0 2.95-.91 2.95-2.22l0-.02c0-1.05-.67-1.65-2.05-1.98l-1.14-.28c-.87-.21-1.24-.52-1.24-1.02l0-.02c0-.65 .65-1.1 1.52-1.1c.89 0 1.46 .41 1.62 .99l1.17 0c-.16-1.21-1.24-1.98-2.78-1.98c-1.57 0-2.74 .92-2.74 2.15l0 0c0 1.06 .62 1.67 2 1.99l1.14 .28c.91 .22 1.29 .56 1.29 1.06l0 .02c0 .67-.71 1.14-1.7 1.14c-.94 0-1.53-.4-1.73-1.02l-1.21 0c.13 1.22 1.26 2.01 2.9 2.01zM244.5 132.07c.49 0 .89-.4 .89-.89c0-.49-.4-.89-.89-.89c-.49 0-.89 .4-.89 .89c0 .49 .4 .89 .89 .89z"/></g>
<g fill="#59636e"><path d="M25.26 158l1.23 0l0-3.52l2.49 0c1.85 0 3.16-1.31 3.16-3.18l0-.01c0-1.88-1.31-3.15-3.16-3.15l-3.72 0zm3.4-8.77c1.41 0 2.22 .77 2.22 2.07l0 .01c0 1.3-.81 2.08-2.22 2.08l-2.17 0l0-4.16zM34.07 158l1.19 0l0-10.29l-1.19 0zM39.57 158.13c.99 0 1.76-.43 2.22-1.22l.11 0l0 1.09l1.19 0l0-5.04c0-1.54-1-2.46-2.8-2.46c-1.57 0-2.69 .78-2.88 1.94l-.01 .04l1.19 0l0-.02c.2-.58 .78-.91 1.66-.91c1.1 0 1.65 .5 1.65 1.41l0 .67l-2.11 .12c-1.71 .11-2.69 .87-2.69 2.18l0 .01c0 1.34 1.06 2.19 2.47 2.19zm-1.25-2.21l0-.02c0-.73 .49-1.13 1.61-1.19l1.97-.13l0 .67c0 1.05-.88 1.85-2.09 1.85c-.85 0-1.49-.44-1.49-1.18zM45.27 158l1.19 0l0-4.36c0-1.29 .74-2.09 1.92-2.09c1.17 0 1.72 .64 1.72 1.97l0 4.48l1.19 0l0-4.77c0-1.75-.92-2.73-2.58-2.73c-1.08 0-1.78 .46-2.14 1.24l-.11 0l0-1.11l-1.19 0zM58 160.58c1.31 0 1.92-.47 2.52-2.13l2.88-7.82l-1.25 0l-2.02 6.06l-.1 0l-2.03-6.06l-1.27 0l2.73 7.38l-.14 .43c-.27 .85-.68 1.16-1.35 1.16c-.17 0-.35-.01-.49-.03l0 .97c.16 .03 .36 .04 .52 .04zM67.73 158.13c2.1 0 3.4-1.45 3.4-3.81l0-.01c0-2.37-1.3-3.81-3.4-3.81c-2.1 0-3.4 1.44-3.4 3.81l0 .01c0 2.36 1.3 3.81 3.4 3.81zm0-1.05c-1.4 0-2.18-1.02-2.18-2.76l0-.01c0-1.74 .78-2.76 2.18-2.76c1.39 0 2.18 1.02 2.18 2.76l0 .01c0 1.74-.79 2.76-2.18 2.76zM75.44 158.13c1.08 0 1.83-.44 2.19-1.23l.11 0l0 1.1l1.19 0l0-7.37l-1.19 0l0 4.36c0 1.29-.69 2.09-1.99 2.09c-1.18 0-1.66-.64-1.66-1.96l0-4.49l-1.19 0l0 4.77c0 1.75 .87 2.73 2.54 2.73zM81.14 158l1.19 0l0-4.57c0-1.08 .81-1.79 1.94-1.79c.26 0 .49 .02 .73 .06l0-1.15c-.11-.02-.37-.05-.59-.05c-1 0-1.69 .45-1.97 1.22l-.11 0l0-1.09l-1.19 0zM91.83 158l1.19 0l1.64-5.7l.11 0l1.65 5.7l1.2 0l2.06-7.37l-1.18 0l-1.45 5.89l-.11 0l-1.65-5.89l-1.13 0l-1.64 5.89l-.11 0l-1.45-5.89l-1.19 0zM103.99 158.13c1.73 0 2.79-.98 3.04-1.98l.01-.06l-1.19 0l-.02 .06c-.2 .45-.82 .92-1.82 .92c-1.31 0-2.15-.89-2.18-2.41l5.3 0l0-.47c0-2.2-1.21-3.69-3.22-3.69c-2 0-3.3 1.56-3.3 3.84l0 0c0 2.31 1.27 3.79 3.38 3.79zm-.08-6.57c1.08 0 1.89 .69 2.01 2.15l-4.07 0c.13-1.4 .96-2.15 2.06-2.15zM111.99 158.13c1.73 0 2.78-.98 3.04-1.98l.01-.06l-1.19 0l-.03 .06c-.19 .45-.81 .92-1.81 .92c-1.31 0-2.15-.89-2.18-2.41l5.3 0l0-.47c0-2.2-1.22-3.69-3.22-3.69c-2 0-3.3 1.56-3.3 3.84l0 0c0 2.31 1.27 3.79 3.38 3.79zm-.09-6.57c1.09 0 1.9 .69 2.02 2.15l-4.07 0c.13-1.4 .96-2.15 2.05-2.15zM117.04 158l1.19 0l0-2.8l.69-.67l2.77 3.47l1.49 0l-3.42-4.27l3.21-3.1l-1.44 0l-3.19 3.22l-.11 0l0-6.14l-1.19 0zM125.55 158.07c.49 0 .89-.4 .89-.89c0-.49-.4-.89-.89-.89c-.49 0-.89 .4-.89 .89c0 .49 .4 .89 .89 .89zM132.82 158l5.99 0l0-1.11l-4.76 0l0-8.75l-1.23 0zM143.31 158.13c2.1 0 3.4-1.45 3.4-3.81l0-.01c0-2.37-1.3-3.81-3.4-3.81c-2.1 0-3.4 1.44-3.4 3.81l0 .01c0 2.36 1.3 3.81 3.4 3.81zm0-1.05c-1.4 0-2.18-1.02-2.18-2.76l0-.01c0-1.74 .78-2.76 2.18-2.76c1.39 0 2.18 1.02 2.18 2.76l0 .01c0 1.74-.79 2.76-2.18 2.76zM151.58 158.13c2.1 0 3.4-1.45 3.4-3.81l0-.01c0-2.37-1.3-3.81-3.4-3.81c-2.1 0-3.4 1.44-3.4 3.81l0 .01c0 2.36 1.3 3.81 3.4 3.81zm0-1.05c-1.4 0-2.18-1.02-2.18-2.76l0-.01c0-1.74 .78-2.76 2.18-2.76c1.39 0 2.18 1.02 2.18 2.76l0 .01c0 1.74-.79 2.76-2.18 2.76zM156.89 158l1.19 0l0-2.8l.69-.67l2.76 3.47l1.5 0l-3.43-4.27l3.22-3.1l-1.44 0l-3.19 3.22l-.11 0l0-6.14l-1.19 0zM172.03 158.13c1.86 0 3.09-1.51 3.09-3.81l0-.01c0-2.31-1.22-3.81-3.09-3.81c-1.02 0-1.9 .51-2.3 1.29l-.11 0l0-4.08l-1.19 0l0 10.29l1.19 0l0-1.18l.11 0c.45 .82 1.27 1.31 2.3 1.31zm-.28-1.05c-1.34 0-2.16-1.06-2.16-2.76l0-.01c0-1.7 .82-2.76 2.16-2.76c1.35 0 2.15 1.04 2.15 2.76l0 .01c0 1.72-.8 2.76-2.15 2.76zM178.98 158.13c1 0 1.77-.43 2.23-1.22l.11 0l0 1.09l1.19 0l0-5.04c0-1.54-1-2.46-2.8-2.46c-1.57 0-2.69 .78-2.89 1.94l0 .04l1.19 0l0-.02c.2-.58 .78-.91 1.66-.91c1.1 0 1.65 .5 1.65 1.41l0 .67l-2.11 .12c-1.72 .11-2.69 .87-2.69 2.18l0 .01c0 1.34 1.06 2.19 2.46 2.19zm-1.24-2.21l0-.02c0-.73 .49-1.13 1.61-1.19l1.97-.13l0 .67c0 1.05-.88 1.85-2.09 1.85c-.85 0-1.49-.44-1.49-1.18zM187.7 158.13c1.77 0 2.76-.95 3.06-2.28l.02-.08l-1.18 .01l-.01 .04c-.28 .82-.91 1.26-1.9 1.26c-1.31 0-2.16-1.09-2.16-2.79l0-.01c0-1.66 .84-2.73 2.16-2.73c1.06 0 1.72 .59 1.9 1.32l.01 .02l1.18 0l0-.04c-.22-1.32-1.3-2.35-3.09-2.35c-2.06 0-3.37 1.49-3.37 3.78l0 .01c0 2.34 1.32 3.84 3.38 3.84zM192.59 158l1.19 0l0-2.8l.69-.67l2.76 3.47l1.5 0l-3.43-4.27l3.21-3.1l-1.44 0l-3.18 3.22l-.11 0l0-6.14l-1.19 0zM207.09 158.13c2.1 0 3.39-1.45 3.39-3.81l0-.01c0-2.37-1.29-3.81-3.39-3.81c-2.1 0-3.4 1.44-3.4 3.81l0 .01c0 2.36 1.3 3.81 3.4 3.81zm0-1.05c-1.4 0-2.18-1.02-2.18-2.76l0-.01c0-1.74 .78-2.76 2.18-2.76c1.39 0 2.18 1.02 2.18 2.76l0 .01c0 1.74-.79 2.76-2.18 2.76zM212.33 158l1.19 0l0-4.36c0-1.29 .74-2.09 1.92-2.09c1.18 0 1.72 .64 1.72 1.97l0 4.48l1.19 0l0-4.77c0-1.75-.92-2.73-2.57-2.73c-1.09 0-1.78 .46-2.15 1.24l-.11 0l0-1.11l-1.19 0zM225.07 160.58c1.3 0 1.91-.47 2.52-2.13l2.88-7.82l-1.26 0l-2.01 6.06l-.11 0l-2.02-6.06l-1.28 0l2.73 7.38l-.14 .43c-.26 .85-.67 1.16-1.35 1.16c-.16 0-.35-.01-.49-.03l0 .97c.16 .03 .37 .04 .53 .04zM234.79 158.13c2.1 0 3.4-1.45 3.4-3.81l0-.01c0-2.37-1.3-3.81-3.4-3.81c-2.1 0-3.39 1.44-3.39 3.81l0 .01c0 2.36 1.29 3.81 3.39 3.81zm0-1.05c-1.39 0-2.18-1.02-2.18-2.76l0-.01c0-1.74 .79-2.76 2.18-2.76c1.4 0 2.18 1.02 2.18 2.76l0 .01c0 1.74-.78 2.76-2.18 2.76zM242.5 158.13c1.08 0 1.83-.44 2.19-1.23l.11 0l0 1.1l1.19 0l0-7.37l-1.19 0l0 4.36c0 1.29-.69 2.09-1.99 2.09c-1.17 0-1.65-.64-1.65-1.96l0-4.49l-1.19 0l0 4.77c0 1.75 .86 2.73 2.53 2.73zM248.21 158l1.18 0l0-4.57c0-1.08 .81-1.79 1.95-1.79c.26 0 .48 .02 .73 .06l0-1.15c-.12-.02-.37-.05-.6-.05c-1 0-1.69 .45-1.97 1.22l-.11 0l0-1.09l-1.18 0zM258.1 160.58c1.31 0 1.92-.47 2.53-2.13l2.87-7.82l-1.25 0l-2.01 6.06l-.11 0l-2.03-6.06l-1.27 0l2.73 7.38l-.14 .43c-.26 .85-.67 1.16-1.35 1.16c-.16 0-.35-.01-.49-.03l0 .97c.16 .03 .37 .04 .52 .04zM267.81 158.13c1.74 0 2.79-.98 3.04-1.98l.02-.06l-1.19 0l-.03 .06c-.2 .45-.81 .92-1.81 .92c-1.31 0-2.16-.89-2.19-2.41l5.31 0l0-.47c0-2.2-1.22-3.69-3.22-3.69c-2.01 0-3.31 1.56-3.31 3.84l0 0c0 2.31 1.28 3.79 3.38 3.79zm-.08-6.57c1.09 0 1.89 .69 2.02 2.15l-4.08 0c.13-1.4 .96-2.15 2.06-2.15zM274.82 158.13c1 0 1.77-.43 2.23-1.22l.11 0l0 1.09l1.19 0l0-5.04c0-1.54-1-2.46-2.8-2.46c-1.57 0-2.69 .78-2.89 1.94l0 .04l1.19 0l0-.02c.19-.58 .78-.91 1.66-.91c1.1 0 1.65 .5 1.65 1.41l0 .67l-2.11 .12c-1.72 .11-2.69 .87-2.69 2.18l0 .01c0 1.34 1.06 2.19 2.46 2.19zm-1.24-2.21l0-.02c0-.73 .49-1.13 1.61-1.19l1.97-.13l0 .67c0 1.05-.88 1.85-2.09 1.85c-.85 0-1.49-.44-1.49-1.18zM280.53 158l1.18 0l0-4.57c0-1.08 .81-1.79 1.95-1.79c.26 0 .48 .02 .73 .06l0-1.15c-.12-.02-.37-.05-.6-.05c-1 0-1.69 .45-1.97 1.22l-.11 0l0-1.09l-1.18 0zM285.94 158.07c.49 0 .89-.4 .89-.89c0-.49-.4-.89-.89-.89c-.49 0-.89 .4-.89 .89c0 .49 .4 .89 .89 .89z"/></g>
<g fill="#0969da"><path d="M27.9 203l1.16 0l3.45-9.37l-1.22 0l-2.76 7.86l-.1 0l-2.75-7.86l-1.23 0zM34.61 194.65c.43 0 .78-.35 .78-.78c0-.43-.35-.78-.78-.78c-.43 0-.78 .35-.78 .78c0 .43 .35 .78 .78 .78zm-.57 8.35l1.13 0l0-7l-1.13 0zM40.16 203.12c1.65 0 2.65-.93 2.89-1.88l.01-.05l-1.13 0l-.03 .06c-.18 .42-.77 .87-1.72 .87c-1.24 0-2.04-.85-2.07-2.3l5.03 0l0-.44c0-2.09-1.15-3.5-3.05-3.5c-1.91 0-3.14 1.48-3.14 3.64l0 .01c0 2.19 1.21 3.59 3.21 3.59zm-.08-6.24c1.03 0 1.8 .66 1.92 2.04l-3.88 0c.13-1.33 .92-2.04 1.96-2.04zM46.25 203l1.13 0l1.56-5.42l.1 0l1.57 5.42l1.13 0l1.96-7l-1.12 0l-1.38 5.6l-.1 0l-1.57-5.6l-1.07 0l-1.56 5.6l-.11 0l-1.37-5.6l-1.13 0zM58.94 205.34l1.13 0l0-3.44l.1 0c.39 .74 1.22 1.22 2.18 1.22c1.78 0 2.94-1.42 2.94-3.61l0-.02c0-2.18-1.16-3.61-2.94-3.61c-.97 0-1.75 .46-2.18 1.24l-.1 0l0-1.12l-1.13 0zm3.15-3.22c-1.27 0-2.05-1-2.05-2.61l0-.02c0-1.61 .78-2.61 2.05-2.61c1.28 0 2.04 .98 2.04 2.61l0 .02c0 1.63-.76 2.61-2.04 2.61zM67.06 203l1.13 0l0-4.34c0-1.02 .76-1.71 1.84-1.71c.25 0 .46 .03 .7 .07l0-1.1c-.12-.02-.36-.04-.57-.04c-.95 0-1.6 .42-1.87 1.16l-.1 0l0-1.04l-1.13 0zM74.8 203.12c2 0 3.23-1.37 3.23-3.61l0-.02c0-2.24-1.23-3.61-3.23-3.61c-1.99 0-3.22 1.37-3.22 3.61l0 .02c0 2.24 1.23 3.61 3.22 3.61zm0-1c-1.32 0-2.07-.96-2.07-2.61l0-.02c0-1.65 .75-2.61 2.07-2.61c1.33 0 2.08 .96 2.08 2.61l0 .02c0 1.65-.75 2.61-2.08 2.61zM80.37 194.65c.43 0 .78-.35 .78-.78c0-.43-.35-.78-.78-.78c-.43 0-.78 .35-.78 .78c0 .43 .35 .78 .78 .78zm-1.59 10.75c1.47 0 2.15-.61 2.15-2.06l0-7.34l-1.13 0l0 7.36c0 .78-.28 1.04-1.04 1.04l-.17 0l0 1zM85.92 203.12c1.65 0 2.65-.93 2.89-1.88l.01-.05l-1.13 0l-.02 .06c-.19 .42-.77 .87-1.72 .87c-1.25 0-2.05-.85-2.08-2.3l5.04 0l0-.44c0-2.09-1.16-3.5-3.06-3.5c-1.9 0-3.14 1.48-3.14 3.64l0 .01c0 2.19 1.21 3.59 3.21 3.59zm-.08-6.24c1.04 0 1.8 .66 1.92 2.04l-3.87 0c.12-1.33 .91-2.04 1.95-2.04zM93.53 203.12c1.68 0 2.62-.9 2.91-2.17l.01-.07l-1.12 .01l-.01 .04c-.26 .78-.86 1.19-1.8 1.19c-1.25 0-2.05-1.03-2.05-2.64l0-.01c0-1.58 .79-2.59 2.05-2.59c1.01 0 1.63 .55 1.81 1.24l0 .02l1.13 0l-.01-.04c-.21-1.24-1.23-2.22-2.93-2.22c-1.96 0-3.21 1.41-3.21 3.59l0 .01c0 2.22 1.26 3.64 3.22 3.64zM100.72 203.05c.22 0 .44-.02 .66-.06l0-.96c-.21 .02-.32 .02-.52 .02c-.73 0-1.01-.33-1.01-1.15l0-3.97l1.53 0l0-.93l-1.53 0l0-1.81l-1.17 0l0 1.81l-1.11 0l0 .93l1.11 0l0 4.25c0 1.34 .6 1.87 2.04 1.87z"/></g>
<path d="M116 202l8-8m-8 0h8v8" fill="none" stroke="#0969da" stroke-width="1.2" stroke-linecap="round" stroke-linejoin="round"/>
</svg>
